<svg width="15" height="15" viewBox="0 0 15 15" fill="none" xmlns="http://www.w3.org/2000/svg">
<path d="M13.7485 2.43499L11.8553 0.54834L7.92356 4.47353L9.44777 6.04767C9.19233 6.50112 8.63809 7.36976 7.69352 8.31433C6.74884 9.25904 5.87384 9.81957 5.41605 10.0791L3.87279 8.55549L0.00244141 12.4028L1.88529 14.2982C2.60504 15.0179 3.70016 15.2044 4.61038 14.7624C5.99939 14.0878 8.09565 12.843 10.1945 10.7442C12.2933 8.64539 13.538 6.5491 14.2127 5.16009C14.3725 4.83095 14.4502 4.47774 14.4502 4.12678C14.4502 3.50706 14.208 2.89451 13.7485 2.43499ZM13.1979 4.66719C12.5611 5.97832 11.3847 7.95852 9.39679 9.94644C7.40886 11.9344 5.42867 13.1108 4.11753 13.7476C3.63953 13.9797 3.06305 13.8804 2.68438 13.5018L1.59764 12.4078L3.87561 10.1435L5.19033 11.4414L5.54208 11.2848C5.59924 11.2593 6.95965 10.6437 8.49134 9.11201C10.024 7.57933 10.6268 6.2304 10.6517 6.17373L10.8043 5.82669L9.50696 4.48691L11.8561 2.14165L12.9514 3.23313C13.3308 3.61316 13.43 4.18938 13.1979 4.66719Z" fill="#6E9C9F"/>
</svg>
