<svg width="57" height="57" viewBox="0 0 57 57" fill="none" xmlns="http://www.w3.org/2000/svg">
<path d="M20.7772 40.7903C20.4412 40.7903 20.1052 40.6617 19.8479 40.407L2.2158 22.7723C0.168301 20.7248 0.168301 17.3937 2.2158 15.3462C4.26855 13.2987 7.59705 13.3039 9.6393 15.3462L25.4182 31.125C25.9301 31.6369 25.9301 32.469 25.4182 32.9809C24.9063 33.4928 24.0742 33.4928 23.5623 32.9809L7.78343 17.202C6.76493 16.1835 5.10068 16.1809 4.07168 17.202C3.57818 17.6982 3.30255 18.357 3.30255 19.0579C3.30255 19.7614 3.57555 20.4203 4.07168 20.9164L21.7064 38.5485C22.2183 39.0604 22.2183 39.8925 21.7064 40.4044C21.4492 40.6617 21.1132 40.7903 20.7772 40.7903Z" fill="black"/>
<path d="M30.059 27.7963C29.723 27.7963 29.387 27.6677 29.1298 27.4131L11.4977 9.77833C10.4713 8.75196 8.80966 8.75196 7.78328 9.77833C7.28978 10.2745 7.01416 10.9333 7.01416 11.6342C7.01416 12.3351 7.28716 12.994 7.78328 13.4901L9.63916 15.346C10.151 15.8578 10.151 16.69 9.63916 17.2018C9.12728 17.7137 8.29516 17.7137 7.78328 17.2018L5.92741 15.346C4.93516 14.3537 4.38916 13.036 4.38916 11.6342C4.38916 10.2325 4.93516 8.91471 5.92741 7.92246C7.90928 5.94058 11.3664 5.93533 13.3535 7.92246L30.9856 25.5572C31.4975 26.0691 31.4975 26.9012 30.9856 27.4131C30.7284 27.6703 30.395 27.7963 30.059 27.7963Z" fill="black"/>
<path d="M35.6293 22.229C35.2933 22.229 34.9573 22.1004 34.7001 21.8457L20.7771 7.92273C19.7507 6.89636 18.0917 6.89636 17.0653 7.92273C16.0416 8.94648 16.0416 10.6107 17.0653 11.6345C17.5772 12.1464 17.5772 12.9785 17.0653 13.4904C16.5534 14.0022 15.7213 14.0022 15.2094 13.4904C13.1646 11.4455 13.1646 8.11173 15.2094 6.06686C17.2543 4.02198 20.5881 4.02198 22.6329 6.06686L36.5559 19.9899C37.0678 20.5017 37.0678 21.3339 36.5559 21.8457C36.3013 22.1004 35.9653 22.229 35.6293 22.229Z" fill="black"/>
<path d="M34.1962 56.4667C33.3115 56.4667 32.4164 56.367 31.5292 56.1648L9.42667 51.0986C8.47117 50.8991 7.58129 50.4108 6.85679 49.6863C5.86454 48.6941 5.31592 47.3737 5.31592 45.9746C5.31592 44.5728 5.86454 43.2551 6.85679 42.2628C7.53929 41.5803 8.36879 41.1105 9.26392 40.8926C9.29017 40.8821 9.31642 40.8768 9.34267 40.8689L20.4727 38.1993C21.1788 38.0234 21.8875 38.4671 22.0555 39.1706C22.2235 39.8767 21.7878 40.5828 21.0843 40.7534L10.0304 43.4047C9.99629 43.4152 9.96217 43.4257 9.92542 43.4336C9.48442 43.5307 9.06442 43.7696 8.71267 44.1213C8.21654 44.6175 7.94092 45.2763 7.94092 45.9772C7.94092 46.6781 8.21392 47.3369 8.71267 47.8331C9.06179 48.1822 9.49492 48.429 9.93067 48.5261C9.94904 48.5287 9.96479 48.5313 9.98054 48.5366L32.1172 53.6107C35.2225 54.3221 38.4172 53.4033 40.6668 51.1511L51.4083 40.4069C53.1434 38.6718 54.0989 36.3644 54.0989 33.9101C54.0989 31.4557 53.1434 29.1509 51.4083 27.4132L28.2059 4.21082C27.1795 3.18445 25.5205 3.18445 24.4942 4.21082C23.4704 5.23457 23.4704 6.89882 24.4942 7.92257C25.006 8.43445 25.006 9.26657 24.4942 9.77845C23.9823 10.2903 23.1502 10.2903 22.6383 9.77845C20.5934 7.73357 20.5934 4.39982 22.6383 2.35495C24.6832 0.31007 28.0169 0.31007 30.0618 2.35495L53.2642 25.5573C55.4981 27.7886 56.7239 30.7522 56.7239 33.9101C56.7239 37.068 55.4954 40.0316 53.2642 42.2628L42.5227 53.007C40.2704 55.2513 37.2884 56.4667 34.1962 56.4667Z" fill="black"/>
</svg>
